<?xml version="1.0" standalone="no"?>
<!DOCTYPE svg PUBLIC "-//W3C//DTD SVG 20010904//EN"
 "http://www.w3.org/TR/2001/REC-SVG-20010904/DTD/svg10.dtd">
<svg version="1.0" xmlns="http://www.w3.org/2000/svg"
 width="1024" height="1024" viewBox="150 150 724 724"
 preserveAspectRatio="xMidYMid meet">

<g transform="translate(0.000000,1024.000000) scale(0.100000,-0.100000)"
fill="#0E1F34" stroke="none">
<path d="M4745 8448 c109 -27 149 -59 443 -352 266 -264 286 -286 322 -361 75
-153 75 -289 -2 -445 l-41 -85 -1304 -1300 c-718 -715 -1315 -1304 -1327
-1309 -13 -5 -34 -6 -47 -3 -35 9 -1066 1045 -1074 1080 -4 15 -5 37 -1 50 3
12 601 617 1328 1343 1223 1222 1328 1324 1388 1353 101 48 202 58 315 29z"/>
<path d="M7379 8075 c124 -30 138 -41 620 -520 249 -247 466 -468 482 -489 32 -43 37
-83 15 -124 -24 -44 -1259 -1272 -1280 -1272 -10 0 -44 16 -76 35 -220 134
-485 173 -735 109 -82 -21 -228 -92 -300 -146 -33 -25 -154 -137 -269 -249
-115 -112 -229 -219 -255 -238 -121 -88 -279 -137 -411 -127 -191 14 -350 106
-573 334 -101 104 -109 120 -83 170 8 15 559 570 1225 1232 1122 1116 1217
1208 1284 1243 110 57 230 71 356 42z"/>
<path d="M7534 5521 c124 -44 158 -73 574 -486
l402 -400 0 -43 c0 -24 -6 -56 -14 -71 -19 -36 -2534 -2537 -2589 -2573 -71
-48 -166 -72 -261 -65 -100 6 -177 34 -253 92 -32 23 -244 229 -471 457 -391
392 -414 417 -415 452 -1 36 26 64 1269 1305 1363 1362 1304 1306 1445 1346
77 21 235 15 313 -14z"/>
</g>
</svg>
